<svg width="1840" height="1380" viewBox="0 0 1840 1380" fill="none" xmlns="http://www.w3.org/2000/svg">
<path d="M798.196 238.982C797.579 238.77 793.86 256.114 793.456 259.409C793.051 262.704 794.072 269.526 794.072 269.526L789.524 276.752L792.627 281.088C792.627 281.088 792.01 301.939 797.175 308.953C802.339 315.968 808.737 312.46 808.737 312.46L815.347 309.975L823.402 325.873C823.402 325.873 833.924 331.23 844.657 327.318C855.391 323.406 854.774 313.077 854.774 313.077L847.76 285.424C847.76 285.424 853.753 273.245 846.314 257.154C838.876 241.063 825.888 230.734 821.128 230.734C816.349 230.715 798.196 238.982 798.196 238.982Z" fill="white"/>
<path d="M1054.65 793.064C1054.65 793.064 1059.73 814.608 1072.67 822.432C1085.6 830.256 1095.77 829.87 1095.39 826.344C1095 822.817 1084.81 805.59 1084.42 799.327C1084.03 793.064 1089.12 793.449 1084.03 793.064C1078.93 792.678 1054.65 793.064 1054.65 793.064Z" fill="#F3B63F"/>
<path d="M1153.72 793.064C1153.72 793.064 1158.81 814.608 1171.74 822.432C1184.67 830.256 1194.84 829.87 1194.46 826.344C1194.07 822.817 1183.88 805.59 1183.49 799.327C1183.11 793.064 1188.19 793.449 1183.11 793.064C1178 792.678 1153.72 793.064 1153.72 793.064Z" fill="#F3B63F"/>
<path d="M1098.51 793.064C1098.51 793.064 1102.42 818.135 1115.35 828.252C1128.28 838.369 1143.54 840.393 1148.63 837.965C1153.72 835.537 1145.49 825.034 1142.75 818.964C1140.02 812.894 1138.84 793.488 1138.84 793.488L1098.51 793.064Z" fill="#F3B63F"/>
<path d="M1168.05 765.895C1074.21 757.166 975.735 755.624 814.499 749.168C723.291 745.507 471.947 726.738 437.665 722.248C395.925 716.775 365.651 711.34 362.741 720.783C359.831 730.245 402.747 742.616 444.949 751.346C487.151 760.075 745.395 797.903 857.414 800.813C969.433 803.723 1210.24 797.171 1226.23 789.906C1242.24 782.622 1183.72 767.34 1168.05 765.895Z" fill="#E72A8B"/>
<path d="M778.715 589.763C778.715 589.763 765.727 593.617 765.033 596.431C764.339 599.244 766.093 608.359 768.193 624.334C770.294 640.309 768.367 662.066 769.08 673.821C769.774 685.576 773.3 711.032 776.094 720.32C778.908 729.628 778.542 745.95 775.747 748.05C772.934 750.151 766.093 748.224 756.438 747.53C746.784 746.836 736.436 748.417 725.548 749.631C714.66 750.864 697.818 753.485 692.037 751.731C686.255 749.978 687.296 746.297 687.296 745.064C687.296 743.83 708.359 739.803 716.606 737.163C724.854 734.523 741.022 725.119 742.14 721.534C743.257 717.95 741.041 707.737 735.511 685.094C729.98 662.451 718.938 632.91 715.084 612.213C711.211 591.517 714.39 577.931 718.399 568.315C725.182 552.012 752.912 531.316 752.912 531.316C752.912 531.316 776.595 526.421 786.558 551.318C796.521 576.216 778.715 589.763 778.715 589.763Z" fill="white" stroke="#031F43" stroke-width="3.85409" stroke-miterlimit="10" stroke-linecap="round" stroke-linejoin="round"/>
<path d="M942.878 594.29C942.878 594.29 943.938 630.885 945.384 635.105C946.848 639.306 953.477 647.727 960.916 660.677C968.354 673.627 965.772 690.469 965.772 700.991C965.772 711.512 968.046 721.552 969.664 726.081C971.283 730.609 987.624 745.66 993.617 751.171C999.611 756.682 1006.41 765.585 1001.06 768.495C995.699 771.405 984.715 772.349 975.195 768.071C965.675 763.793 949.488 752.366 945.692 745.467C941.876 738.568 940.45 730.956 937.598 723.576C934.746 716.195 925.708 697.638 922.606 690.257C919.503 682.876 917.846 672.894 916.902 667.884C915.958 662.874 905.725 650.04 901.678 640.038C897.631 630.037 891.677 607.683 891.677 607.683C891.677 607.683 893.006 588.143 912.335 583.923C931.682 579.702 942.878 594.29 942.878 594.29Z" fill="white" stroke="#031F43" stroke-width="3.85409" stroke-miterlimit="10" stroke-linecap="round" stroke-linejoin="round"/>
<path d="M837.548 273.976C835.602 274.361 833.848 272.8 833.944 270.815C834.214 265.478 834.099 256.883 831.227 251.641C826.795 243.567 822.498 239.193 813.595 240.619C804.692 242.045 799.335 245.957 791.858 241.679C784.381 237.4 782.242 233.489 782.242 233.489C782.242 233.489 789.006 233.835 796.849 225.645C804.692 217.456 811.109 208.899 822.864 214.95C834.619 221.001 828.568 224.566 838.897 226.705C849.226 228.844 856.722 223.853 866.338 231.696C875.954 239.539 868.477 267.694 863.852 278.042C862.118 281.915 859.921 285.037 857.859 287.427C854.583 291.223 849.052 292.129 844.639 289.778L842.635 288.698C842.635 288.698 847.915 280.566 844.004 275.941C842.096 273.745 839.61 273.571 837.548 273.976Z" fill="#031F43"/>
<path d="M804.441 260.793C804.441 260.793 812.612 257.016 822.421 262.2" stroke="#031F43" stroke-width="3.85409" stroke-miterlimit="10" stroke-linecap="round" stroke-linejoin="round"/>
<path d="M796.289 292.532C796.289 292.532 798.794 292.898 801.762 291.819C804.749 290.74 806.657 289.564 806.657 289.564C806.657 289.564 806.888 296.714 803.207 298.024C799.488 299.315 796.289 292.532 796.289 292.532Z" stroke="#031F43" stroke-width="3.85409" stroke-miterlimit="10" stroke-linecap="round" stroke-linejoin="round"/>
<path d="M793.901 259.041C793.901 259.041 799.856 262.144 798.314 265.959C796.772 269.775 789.97 275.614 789.854 276.924C789.739 278.234 797.832 284.073 797.832 284.073" stroke="#031F43" stroke-width="3.85409" stroke-miterlimit="10" stroke-linecap="round" stroke-linejoin="round"/>
<path d="M805.693 265.709C805.693 265.709 809.72 262.356 816.773 267.039" stroke="#031F43" stroke-width="3.85409" stroke-miterlimit="10" stroke-linecap="round" stroke-linejoin="round"/>
<path d="M807.003 265.477C807.003 265.477 807.37 268.695 810.819 268.926C814.268 269.157 813.209 265.477 813.209 265.477" stroke="#031F43" stroke-width="3.85409" stroke-miterlimit="10" stroke-linecap="round" stroke-linejoin="round"/>
<path d="M797.814 266.961C797.814 266.961 795.926 265.592 794.134 265.708" stroke="#031F43" stroke-width="3.85409" stroke-miterlimit="10" stroke-linecap="round" stroke-linejoin="round"/>
<path d="M796.868 243.779C796.868 243.779 793.419 257.596 793.169 261.527C792.918 265.459 794.71 270.931 794.71 270.931" stroke="#031F43" stroke-width="3.85409" stroke-miterlimit="10" stroke-linecap="round" stroke-linejoin="round"/>
<path d="M792.107 279.891C792.107 279.891 792.338 297.64 795.807 306.35C799.256 315.041 805.577 314.097 809.99 312.189C814.403 310.281 830.725 298.121 833.943 294.441C837.161 290.741 836.93 289.912 836.93 289.912C836.93 289.912 841.459 291.704 844.311 288.12C847.163 284.536 848.126 274.9 848.126 274.9" stroke="#031F43" stroke-width="3.85409" stroke-miterlimit="10" stroke-linecap="round" stroke-linejoin="round"/>
<path d="M846.817 287.158L853.87 311.998" stroke="#031F43" stroke-width="3.85409" stroke-miterlimit="10" stroke-linecap="round" stroke-linejoin="round"/>
<path d="M814.961 309.414C814.961 309.414 822.034 322.036 822.284 324.946" stroke="#031F43" stroke-width="3.85409" stroke-miterlimit="10" stroke-linecap="round" stroke-linejoin="round"/>
<path d="M860.5 308.375C860.5 308.375 850.922 322.597 837.529 325.063C824.136 327.53 814.135 323.021 814.135 323.021C814.135 323.021 795.269 325.044 778.234 335.508C761.199 345.972 736.995 363.893 727.437 368.075C717.879 372.257 702.328 378.539 702.328 378.539C702.328 378.539 703.522 386.305 709.805 394.071C716.087 401.837 724.739 411.395 724.739 411.395C724.739 411.395 766.575 388.675 776.731 392.568C786.886 396.46 792.263 395.266 803.035 427.524C813.807 459.783 815.291 482.522 812.902 486.993C810.512 491.483 802.977 504.124 795.577 508.518C785.846 514.28 769.562 520.87 764.186 523.857C758.809 526.844 750.157 531.238 750.157 531.238C750.157 531.238 768.753 534.745 775.96 544.612C783.899 555.461 784.824 564.113 783.321 573.074C781.818 582.035 780.026 590.996 780.026 590.996C780.026 590.996 796.464 590.09 817.989 581.437C839.514 572.766 859.825 565.905 859.825 565.905C859.825 565.905 875.068 576.369 878.652 584.135C882.237 591.901 892.411 613.176 892.411 613.176C892.411 613.176 904.417 595.909 918.157 594.406C931.897 592.903 942.919 594.291 942.919 594.291C942.919 594.291 944.422 569.779 938.429 548.562C932.455 527.345 930.952 506.726 927.965 497.168C924.978 487.61 918.407 462.808 917.81 446.062C917.213 429.336 920.508 388.078 920.508 388.078L947.101 419.161C947.101 419.161 959.646 414.073 966.834 410.798C974.003 407.502 976.7 398.252 976.7 398.252C976.7 398.252 926.193 326.239 910.352 319.648C894.512 313.058 866.724 317.856 866.724 317.856L860.5 308.375Z" fill="#347CE1" stroke="#031F43" stroke-width="3.85409" stroke-miterlimit="10" stroke-linecap="round" stroke-linejoin="round"/>
<path d="M718.553 404.767C718.553 404.767 699.61 414.383 682.382 420.125C665.154 425.868 631.566 429.452 623.395 431.456C615.205 433.461 591.965 442.074 586.511 448.53C581.058 454.986 570.864 459.148 562.828 463.021C554.792 466.895 553.79 467.049 552.056 465.315C550.341 463.6 551.632 459.437 555.64 455.121C559.668 450.823 563.965 446.507 563.965 446.507C563.965 446.507 543.866 439.049 534.674 440.475C525.482 441.901 518.159 445.35 515.288 443.77C512.417 442.19 513.419 439.319 513.419 439.319C513.419 439.319 511.704 436.737 513.554 434.578C515.403 432.42 524.037 428.99 540.397 428.99C556.758 428.99 596.455 421.898 609.636 418.141C622.817 414.364 652.956 398.677 666.773 393.339C680.59 388.002 702.558 380.467 702.558 380.467L718.553 404.767Z" fill="white" stroke="#031F43" stroke-width="3.85409" stroke-miterlimit="10" stroke-linecap="round" stroke-linejoin="round"/>
<path d="M513.438 439.375C513.438 439.375 531.668 433.787 547.605 434.056" stroke="#031F43" stroke-width="3.85409" stroke-miterlimit="10" stroke-linecap="round" stroke-linejoin="round"/>
<path d="M951.009 418.177C951.009 418.177 958.313 426.656 961.627 429.971C964.942 433.285 968.603 439.895 983.75 436.58C998.896 433.266 1016.49 409.929 1021.02 404.36C1025.55 398.791 1032.41 384.512 1033.81 383.991C1035.22 383.471 1045.53 377.902 1050.23 370.425C1054.93 362.929 1062.49 358.207 1065.61 356.126C1068.75 354.045 1076.58 347.589 1075.71 346.202C1074.84 344.814 1057.94 351.945 1057.42 351.424C1056.9 350.904 1076.92 333.657 1073.63 332.269C1070.31 330.882 1055.17 342.887 1054.13 341.673C1053.08 340.459 1071.89 316.776 1068.93 315.543C1065.96 314.329 1048.02 336.451 1047.5 334.871C1046.98 333.31 1060.29 311.457 1057.59 309.973C1051.83 306.794 1026.63 344.93 1025.59 345.45C1024.55 345.971 1017.8 326.508 1016.24 327.529C1014.68 328.569 1014.47 332.289 1016.64 345.759C1017.8 352.985 1015.47 366.474 1013.12 373.47C1010.79 380.484 982.227 398.656 981.437 398.907C980.666 399.157 976.658 398.232 976.658 398.232L951.009 418.177Z" fill="white" stroke="#031F43" stroke-width="3.85409" stroke-miterlimit="10" stroke-linecap="round" stroke-linejoin="round"/>
<path d="M637.519 966.365C637.519 966.365 603.063 958.85 588.283 949.292C582.309 945.438 578.031 941.121 574.948 936.862C567.49 926.514 571.73 911.888 583.542 907.051C614.125 894.487 682.747 867.527 744.162 852.034C826.177 831.337 894.394 821.124 903.047 817.829C911.718 814.514 939.121 773.564 977.585 750.151C1016.05 726.737 1026.84 725.369 1036.22 730.611C1045.61 735.852 1032.31 775.588 1037.32 803.954C1042.33 832.32 1055.21 849.933 1085.31 863.885C1115.39 877.837 1178.13 898.476 1182.56 898.688C1187 898.88 1226.14 876.623 1233.77 879.918C1241.4 883.233 1235.31 902.946 1247.02 913.834C1258.74 924.741 1282.94 929.906 1291.87 928.846C1300.81 927.767 1335.19 904.546 1360.68 897.184C1386.2 889.842 1453.53 866.255 1478.94 852.978C1504.36 839.701 1537.16 810.467 1544.02 814.11C1550.88 817.752 1500.14 883.175 1458.92 910.539C1417.7 937.903 1390.26 946.652 1385.58 960.122C1380.9 973.611 1378.01 996.427 1391.28 1021.83C1404.56 1047.24 1408.22 1056.28 1403.64 1059.4C1399.05 1062.52 1358.7 1038.48 1334.84 1009.24C1311 980.028 1300.08 968.042 1294.24 966.288C1288.4 964.535 1254.4 962.993 1249.47 965.729C1244.54 968.466 1230.72 978.949 1231.22 984.518C1231.7 990.087 1243.36 1002.48 1241.36 1005.72C1239.35 1008.95 1202.37 1000.24 1192.1 989.779C1181.85 979.315 1178.65 976.213 1178.65 976.213C1178.65 976.213 1167.07 978.641 1165.84 981.184C1164.6 983.728 1156.78 992.978 1159.13 1006.43C1161.48 1019.86 1166.42 1033.41 1164.84 1035.57C1163.26 1037.72 1103.07 1001.65 1097.18 1001.38C1091.26 1001.11 1008.05 1015.81 1005.01 1017.53C1001.96 1019.24 1074.88 1067.3 1105.98 1081.24C1137.09 1095.17 1160.83 1103.28 1158.78 1107.75C1156.74 1112.22 1043.53 1085.09 1002.39 1070.7C961.224 1056.3 887.303 1024.23 887.303 1024.23C887.303 1024.23 795.845 1021.67 743.179 1012.46C648.715 996.003 637.519 966.365 637.519 966.365Z" fill="#A7CCE9"/>
<path d="M574.736 936.709C574.736 936.709 586.375 957.907 607.573 963.688C620.715 967.272 629.464 964.227 632.682 970.105C635.9 975.982 662.725 997.257 728.283 1012C769.791 1021.33 891.215 1028.34 891.215 1028.34C891.215 1028.34 1048.23 1097.39 1159.9 1111.15C1174.66 1112.96 1142.62 1091.89 1079.78 1065.2C1049.33 1052.27 1011.4 1023 1010.33 1019.8C1009.27 1016.6 1090.53 1000.19 1100.38 1004.12C1110.22 1008.05 1159.59 1033.27 1164.82 1035.62C1170.04 1037.98 1161.46 1012.9 1161.48 1000.57C1161.5 988.585 1161.08 984.982 1167.96 982.939C1174.86 980.896 1177.65 977.601 1180.89 980.684C1185.42 984.982 1202.28 1001.71 1231.99 1010.19C1245.95 1014.18 1245.21 1012.38 1242.86 1005.76C1240.76 999.82 1232.53 987.757 1235.73 980.26C1238.93 972.784 1248.03 965.846 1253.36 965.307C1258.7 964.767 1294.2 966.366 1294.2 966.366C1294.2 966.366 1298.01 951.258 1284.54 948.04C1271.07 944.803 1245.91 945.747 1206.65 945.535C1167.4 945.323 1143.23 946.826 1103.94 947.655C1064.65 948.483 1039.96 938.444 1017.65 934.3C995.333 930.138 955.096 951.336 932.877 944.572C910.678 937.808 893.758 941.219 879.633 941.103C865.508 940.987 842.441 941.508 822.727 948.984C803.014 956.461 752.217 968.274 730.807 966.771C709.417 965.268 674.094 943.859 653.706 947.019C608.459 954.053 574.948 936.902 574.948 936.902" fill="#347CE1"/>
<path d="M636.055 966.076C636.055 966.076 652.917 968.967 667.717 970.489" stroke="#031F43" stroke-width="3.85409" stroke-miterlimit="10" stroke-linecap="round" stroke-linejoin="round"/>
<path d="M673.163 935.099C673.698 931.391 672.064 928.087 669.515 927.72C666.966 927.352 664.466 930.06 663.931 933.768C663.397 937.476 665.03 940.78 667.579 941.148C670.129 941.515 672.629 938.807 673.163 935.099Z" fill="#031F43"/>
<path d="M806.712 933.953C806.712 933.953 812.82 950.834 805.709 973.573" stroke="#031F43" stroke-width="3.85409" stroke-miterlimit="10" stroke-linecap="round" stroke-linejoin="round"/>
<path d="M819.646 934.549C819.646 934.549 825.754 951.43 818.644 974.169" stroke="#031F43" stroke-width="3.85409" stroke-miterlimit="10" stroke-linecap="round" stroke-linejoin="round"/>
<path d="M831.765 935.09C831.765 935.09 837.873 951.971 830.763 974.71" stroke="#031F43" stroke-width="3.85409" stroke-miterlimit="10" stroke-linecap="round" stroke-linejoin="round"/>
<path d="M844.697 935.688C844.697 935.688 850.806 952.568 843.695 975.308" stroke="#031F43" stroke-width="3.85409" stroke-miterlimit="10" stroke-linecap="round" stroke-linejoin="round"/>
</svg>
